<svg id="Layer_1" data-name="Layer 1" xmlns="http://www.w3.org/2000/svg" viewBox="0 0 563.6 213.73">
  <defs>
    <style>
      .cls-1 {
        fill: #aa1f2e;
      }

      .cls-2 {
        fill: #2b2c2c;
      }
    </style>
  </defs>
  <title>nielsen-logo</title>
  <path class="cls-1" d="M135.15,148.05v-96c.32,0,.62-.06.93-.06,6.61,0,13.22,0,19.84,0a1.45,1.45,0,0,1,1.38.79q3.4,5.24,6.85,10.43c3.2,4.82,6.43,9.61,9.64,14.42q4.68,7,9.35,14l9.56,14.26c1.52,2.26,3.07,4.51,4.61,6.76a1.55,1.55,0,0,0,.63.57V52.08c.44,0,.74-.06,1.05-.06,5.94,0,11.89,0,17.83,0,.82,0,1,.26,1,1q0,47,0,94c0,.87-.27,1-1.08,1q-9,0-17.92,0a1.42,1.42,0,0,1-1.35-.7c-1.13-1.73-2.3-3.44-3.47-5.14l-9.91-14.34L175,114.71q-4.89-7.06-9.77-14.12Q160.6,93.92,156,87.26a2.85,2.85,0,0,0-1.08-.9v1.13q0,29.61,0,59.22c0,1.5.17,1.34-1.37,1.34H135.15Z" transform="translate(0 0.74)"/>
  <path class="cls-1" d="M497.16,78.9h21.18V89.66c1-1.1,1.77-2,2.65-2.92a30.92,30.92,0,0,1,10.27-7.06,29.91,29.91,0,0,1,19.25-1.2,16.56,16.56,0,0,1,9.44,6.6,18.66,18.66,0,0,1,3.12,9.1,42.62,42.62,0,0,1,.19,4.79q0,23.94,0,47.87V148H542.13v-1.15q0-21.48,0-43a12.22,12.22,0,0,0-1.21-5.36c-1.34-2.8-3.8-3.69-6.67-3.79a17.35,17.35,0,0,0-8.59,2,33.53,33.53,0,0,0-6.62,4.33,1.71,1.71,0,0,0-.69,1.47q0,22.16,0,44.29V148H497.16Z" transform="translate(0 0.74)"/>
  <path class="cls-1" d="M490.92,119.11H444c.15,1.08.24,2.08.45,3a20.36,20.36,0,0,0,1,3.35,13.9,13.9,0,0,0,11.95,9.22,28.23,28.23,0,0,0,17.31-3.57c2.31-1.27,4.47-2.8,6.79-4.26l8.17,12.24a48.11,48.11,0,0,1-4.14,3,65.12,65.12,0,0,1-7,3.68,48.64,48.64,0,0,1-17.67,3.63,46.42,46.42,0,0,1-16.43-2.18,29.93,29.93,0,0,1-15.52-11.43,32.5,32.5,0,0,1-5.26-13.58,45.74,45.74,0,0,1,1-21,34.32,34.32,0,0,1,3.16-7.34,30.63,30.63,0,0,1,9.75-10.28,38,38,0,0,1,22.26-6.17,33.37,33.37,0,0,1,15.54,4.08A27.42,27.42,0,0,1,484.24,90c3.67,5.19,5.21,11.11,5.93,17.27C490.62,111.11,490.68,115.05,490.92,119.11Zm-19.28-12.37c-.35-3.26-1-6.37-2.79-9.06a13,13,0,0,0-2.94-3c-3.23-2.38-6.93-2.67-10.75-1.94-3.64.68-6.17,3-8.13,6a19.47,19.47,0,0,0-2.74,8.06Z" transform="translate(0 0.74)"/>
  <path class="cls-1" d="M291.81,119.11H245.06a22.91,22.91,0,0,0,.48,3,27.51,27.51,0,0,0,1.84,5.33c2.69,5,7.19,7.13,12.69,7.41a29.49,29.49,0,0,0,16.8-4.37c1.89-1.13,3.69-2.41,5.6-3.68,2.65,4,5.39,8.07,8.25,12.37-1.9,1.28-3.71,2.58-5.6,3.75a44.45,44.45,0,0,1-19.42,6.24,50.1,50.1,0,0,1-17.43-1.09,31.15,31.15,0,0,1-17-10.43,30.45,30.45,0,0,1-6.17-13.28,47.22,47.22,0,0,1,.56-23.23,28.4,28.4,0,0,1,4.54-9.47,32.31,32.31,0,0,1,9.62-8.86,38.6,38.6,0,0,1,28.27-4.44,30.72,30.72,0,0,1,9.17,3.7,26.8,26.8,0,0,1,9.19,9.7c3.27,5.42,4.5,11.41,5,17.59.25,2.89.24,5.81.34,8.71C291.82,118.4,291.81,118.69,291.81,119.11Zm-19-12.37c-.3-1.53-.52-3-.87-4.37-.94-3.69-2.76-6.79-6.29-8.56A13.42,13.42,0,0,0,249.22,97c-2.35,2.75-3.3,6.14-3.87,9.7Z" transform="translate(0 0.74)"/>
  <path class="cls-1" d="M416.53,87.19,408.21,99l-.88-.55A41.08,41.08,0,0,0,392.57,92a19.57,19.57,0,0,0-10.93.45,5.29,5.29,0,0,0-.08,10.11c4,1.66,8.18,2.2,12.34,3a61.78,61.78,0,0,1,13,3.47,22.12,22.12,0,0,1,7.53,4.77,15.79,15.79,0,0,1,4.42,9.75c.57,6.14-.6,11.81-4.69,16.65a23.85,23.85,0,0,1-10.25,6.71,42.22,42.22,0,0,1-13.5,2.5,58.23,58.23,0,0,1-22.48-3.19,39.71,39.71,0,0,1-12.05-6.73l-.6-.51a1.77,1.77,0,0,1-.14-.23l8.3-11.63c.34.24.55.37.75.52a38.38,38.38,0,0,0,24.94,8.43,14.59,14.59,0,0,0,6.51-1.41,5.72,5.72,0,0,0,3.52-5.2,5.78,5.78,0,0,0-3.31-5.59,26.06,26.06,0,0,0-7.3-2.29c-4.4-.93-8.84-1.76-13.21-2.81a28.39,28.39,0,0,1-9.7-4.24,16.55,16.55,0,0,1-7.34-13.2c-.34-5,.48-9.68,3.45-13.75a22,22,0,0,1,10.38-7.78c9-3.34,18.17-2.76,27.36-.91a40.38,40.38,0,0,1,9.73,3.54A46.49,46.49,0,0,1,416.53,87.19Z" transform="translate(0 0.74)"/>
  <path class="cls-1" d="M330.18,52.07h21V148h-21Z" transform="translate(0 0.74)"/>
  <path class="cls-1" d="M319,78.92V148c-.32,0-.63.06-.93.06-6.41,0-12.81,0-19.22,0-.77,0-1-.22-1-1q0-33.66,0-67.31c0-.52,0-.94.74-.94,6.61,0,13.22,0,19.83,0A4,4,0,0,1,319,78.92Z" transform="translate(0 0.74)"/>
  <path class="cls-1" d="M52.64,94.19A15.46,15.46,0,0,1,68.23,78.82c8.28,0,15.75,6.74,15.67,15.39a15.63,15.63,0,0,1-31.26,0Z" transform="translate(0 0.74)"/>
  <path class="cls-1" d="M50.43,69.27a12.89,12.89,0,0,1-13.07-12.4C37.19,49.28,43.17,44,50,43.71A13.19,13.19,0,0,1,63.47,56.42,13.16,13.16,0,0,1,50.43,69.27Z" transform="translate(0 0.74)"/>
  <path class="cls-1" d="M86,144.65a12.77,12.77,0,1,1,13.09-12.5A12.88,12.88,0,0,1,86,144.65Z" transform="translate(0 0.74)"/>
  <path class="cls-1" d="M225.58,35.27a3.51,3.51,0,0,1-2-4.08c.35-1.72,1.78-2.64,3.18-3.61A9.05,9.05,0,0,1,222.93,22a9.55,9.55,0,0,1,7.89-11.56,14.49,14.49,0,0,1,9.64,1.44,16.46,16.46,0,0,1,1.5,1,14.92,14.92,0,0,1,6.3-2.42v3.71l-4.84.88a8.62,8.62,0,0,1,1.32,6.22c-.64,4.26-3.39,6.58-7.36,7.67A14.83,14.83,0,0,1,230,29a2.27,2.27,0,0,0-2.49,1.51,1.34,1.34,0,0,0,1.13,1.76c1.5.32,3,.46,4.56.65,2.85.36,5.71.66,8.56,1.08a8.32,8.32,0,0,1,2.19.82c4.28,2,4.12,7.47,1.43,9.92a11.45,11.45,0,0,1-5.95,2.71,30,30,0,0,1-13.82-.54,8.4,8.4,0,0,1-4.37-3.15,5.07,5.07,0,0,1,.24-5.09,17,17,0,0,1,1.76-1.92A19.93,19.93,0,0,1,225.58,35.27Zm8.32-21.7c-.66.08-1.33.12-2,.25a5.53,5.53,0,0,0-4.77,4.26c-.6,2.44-.32,4.77,1.69,6.48s4.64,2,7.25,1.38a6.25,6.25,0,0,0,4.45-7.85C239.74,15.28,237.27,13.63,233.9,13.57Zm.81,31.07a16.26,16.26,0,0,0,2.94-.26,14.47,14.47,0,0,0,4.24-1.45c2.2-1.34,1.85-4.15-.51-5.18a6.24,6.24,0,0,0-1.84-.52c-3.12-.33-6.26-.54-9.37-.93-2-.25-3.33.76-4.47,2.14a3.23,3.23,0,0,0-.71,2.62,3.37,3.37,0,0,0,2.47,2.67C229.63,44.55,231.91,44.56,234.71,44.64Z" transform="translate(0 0.74)"/>
  <path class="cls-1" d="M261.51,0c1.32,0,2.59,0,3.87,0,.17,0,.47.44.47.69,0,1.34,0,2.68,0,4v11H285.6V0h4.62v37.5h-4.56V20H265.93V37.52h-4.42Z" transform="translate(0 0.74)"/>
  <path class="cls-1" d="M164.34,10.81c-1.33.37-2.55.73-3.79,1-.17,0-.54-.21-.63-.42-.38-.84-.66-1.73-1-2.59-1.71-4-4.88-5.52-9-5.41a10.09,10.09,0,0,0-9.77,6.89,22.81,22.81,0,0,0,.17,17.35c2.79,6.9,10.28,7.77,14.86,5.51a10.06,10.06,0,0,0,4.75-5.67c.3-.72.52-1.48.81-2.32l4.32,1c-1.09,3.21-2.3,6.28-4.84,8.64a13.66,13.66,0,0,1-8.38,3.48,17.56,17.56,0,0,1-6.49-.59,14.63,14.63,0,0,1-7.78-5.75c-3-4.14-3.67-8.89-3.65-13.8A23.24,23.24,0,0,1,136,8.22,15.43,15.43,0,0,1,151.13-.7,13.71,13.71,0,0,1,159.25,2C162,4.28,163.44,7.32,164.34,10.81Z" transform="translate(0 0.74)"/>
  <path class="cls-1" d="M319.14,69.35H297.85V52.65h.94c6.47,0,12.93,0,19.4,0,.82,0,1,.24,1,1,0,4.92,0,9.84,0,14.76C319.18,68.7,319.16,69,319.14,69.35Z" transform="translate(0 0.74)"/>
  <path class="cls-1" d="M209,37.55H204.6l-.61-3.4c-.83.55-1.66,1.12-2.5,1.65a14.19,14.19,0,0,1-10,2.06c-5.4-.85-7.57-7-4.08-11.38a12.59,12.59,0,0,1,5.73-3.84,46.6,46.6,0,0,1,10.41-2.49c.5-.06.64-.27.6-.72-.06-.7-.05-1.4-.17-2.09A4.16,4.16,0,0,0,200.19,14a10.56,10.56,0,0,0-6.13.84c-1.78.82-3.45,1.87-5.31,2.89l-2.12-2.51a17.15,17.15,0,0,1,5.92-3.78,18.07,18.07,0,0,1,9.69-.94,6.94,6.94,0,0,1,6,6.68c.17,2.14.14,4.3.16,6.45,0,3.2,0,6.4.05,9.6C208.53,34.65,208.8,36.09,209,37.55Zm-4.86-14.29a1.7,1.7,0,0,0-.36-.05,30.23,30.23,0,0,0-10.17,2.86A9,9,0,0,0,191.05,28a3.93,3.93,0,0,0-.63,4.25,3.59,3.59,0,0,0,3.28,2.23c.34,0,.69.07,1,.08,3.18.09,5.84-1.25,8.36-3a2.19,2.19,0,0,0,1-2.21,18.22,18.22,0,0,1,0-2.09Z" transform="translate(0 0.74)"/>
  <path class="cls-1" d="M29.66,18.14A9.42,9.42,0,1,1,29.71,37a9.42,9.42,0,1,1-.05-18.84Z" transform="translate(0 0.74)"/>
  <path class="cls-1" d="M106.65,170.19c-4.69.2-9.62-4.2-9.6-9.4a9.86,9.86,0,0,1,9.61-9.44,9.43,9.43,0,0,1,9.61,9.45A9.34,9.34,0,0,1,106.65,170.19Z" transform="translate(0 0.74)"/>
  <path class="cls-2" d="M415,175.94V175c0-3.35,0-6.69,0-10,0-.86.26-1.11,1.09-1s1.85,0,2.84,0v19.41c-1.23,0-2.42,0-3.6,0-.26,0-.56-.37-.74-.64-1.47-2.13-2.9-4.29-4.38-6.41-1.21-1.72-2.47-3.4-3.81-5.24v12.27h-4V164c1.35,0,2.71,0,4.06,0,.25,0,.52.42.7.69q3.68,5.45,7.34,10.91c.09.13.2.25.3.38Z" transform="translate(0 0.74)"/>
  <path class="cls-2" d="M271.65,164.06a3.13,3.13,0,0,1,.44-.09c3.09,0,6.17.05,9.25.1a6.17,6.17,0,0,1,1.12.16c2.47.52,3.84,1.84,4,3.85.21,2.75-.7,4.16-3.38,5.15.28.11.5.2.72.27a4,4,0,0,1,3.15,3.55c.27,2.1-.21,3.93-2.13,5.15a8,8,0,0,1-4.15,1.16c-2.85.06-5.71,0-8.56,0a2.23,2.23,0,0,1-.45-.09Zm4.28,16.17c1.81-.14,3.57-.17,5.3-.45,1.09-.18,1.56-1.06,1.57-2.21a2.09,2.09,0,0,0-1.54-2.26c-1.75-.54-3.54-.27-5.33-.29Zm0-8.21c1.57-.08,3.08-.06,4.57-.25a2.18,2.18,0,0,0,0-4.33c-1.48-.14-3,0-4.55,0Z" transform="translate(0 0.74)"/>
  <path class="cls-2" d="M207.48,175.56c1.44,2.61,2.81,5.12,4.29,7.81-1.54,0-2.92,0-4.3,0-.2,0-.44-.33-.57-.56-1.09-1.93-2.18-3.84-3.2-5.8a1.35,1.35,0,0,0-1.54-.91,11.21,11.21,0,0,1-1.54,0v7.29c-1.36,0-2.65,0-3.94,0-.13,0-.33-.53-.34-.82,0-4.07,0-8.15,0-12.22,0-1.86,0-3.73,0-5.59,0-.48.08-.76.66-.75,2.94.06,5.88,0,8.81.17a13.06,13.06,0,0,1,3.3,1,2.45,2.45,0,0,1,.77.56c2.83,2.6,1.9,8.05-1.63,9.55Zm-6.89-8.17v5.5c1.76-.14,3.41-.17,5-.44,1.17-.2,1.69-1.15,1.66-2.43a2.06,2.06,0,0,0-1.75-2.28C203.94,167.51,202.32,167.5,200.59,167.39Z" transform="translate(0 0.74)"/>
  <path class="cls-2" d="M232.14,183.32V164h4.24v7.37h7.73V164h4.33v19.28h-4.28v-8.17h-7.73v8.17Z" transform="translate(0 0.74)"/>
  <path class="cls-2" d="M430.33,164h4.27v7.39h7.72V164h4.29V183.3h-4.27v-8.16h-7.67v8.16h-4.34Z" transform="translate(0 0.74)"/>
  <path class="cls-2" d="M468.56,174.1a27,27,0,0,1-.47,2.93,9.14,9.14,0,0,1-10.89,6.52c-4.28-.83-7.05-4.16-7.31-8.79a11.51,11.51,0,0,1,1.68-7.35c3-4.42,9.91-5.09,13.85-1.48C467.75,168.06,468.42,170.72,468.56,174.1Zm-4.51-.37.24-.07a28.56,28.56,0,0,0-1.16-4,3.94,3.94,0,0,0-4-2.42,4.22,4.22,0,0,0-4.1,2.45,9.1,9.1,0,0,0,.18,8.4,4.49,4.49,0,0,0,7.69.18A8.12,8.12,0,0,0,464.05,173.73Z" transform="translate(0 0.74)"/>
  <path class="cls-2" d="M380.47,173.33a15,15,0,0,1,.24-2.16c.81-3.36,2.64-5.95,6-7.06a9.14,9.14,0,0,1,9.45,1.84,9.48,9.48,0,0,1,2.93,6.79,11,11,0,0,1-2.09,7.74c-3.65,4.69-11.6,4.28-14.8-.74A10.71,10.71,0,0,1,380.47,173.33Zm14.36.37.21,0a27,27,0,0,0-1-3.84,4.57,4.57,0,0,0-8.13-.3A9.14,9.14,0,0,0,386,178a4.07,4.07,0,0,0,3.93,2.29,4.33,4.33,0,0,0,4-2.45A8.23,8.23,0,0,0,394.83,173.7Z" transform="translate(0 0.74)"/>
  <path class="cls-2" d="M486.2,167.6l-3,2.09a19.19,19.19,0,0,0-2.84-2.06,4,4,0,0,0-4.58.36,1.38,1.38,0,0,0,0,2.1,10.06,10.06,0,0,0,2.33,1.3c1.3.49,2.69.74,4,1.26a13.48,13.48,0,0,1,3.19,1.73c2.07,1.59,1.74,5.84-.39,7.41-3.47,2.54-7.14,2.46-10.9.93a7.43,7.43,0,0,1-3.72-3.77l3.23-1.92a6.16,6.16,0,0,0,7.12,3.06,2,2,0,0,0,1.63-1.72,1.82,1.82,0,0,0-1.27-2.06c-1.65-.64-3.36-1.12-5-1.67-.52-.17-1.05-.33-1.56-.55-2.37-1.06-3.49-2.83-3.27-5.12a5.53,5.53,0,0,1,4.36-5.05,10.24,10.24,0,0,1,9.72,2.38,3.34,3.34,0,0,1,.35.4Z" transform="translate(0 0.74)"/>
  <path class="cls-2" d="M228.52,167.54h-9v4.16h6.54v3.38h-6.53v4.78H229v3.46H215.2V164h13.32Z" transform="translate(0 0.74)"/>
  <path class="cls-2" d="M494.05,176.49v6.88c-1.32,0-2.59,0-3.87,0-.13,0-.31-.26-.39-.44a1.49,1.49,0,0,1,0-.52c0-5.81,0-11.63,0-17.45,0-.73.14-1,.95-1,2.76.09,5.53.06,8.29.15a7.24,7.24,0,0,1,5,2.2,2.51,2.51,0,0,1,.52.8,7,7,0,0,1-.08,6.23,5.93,5.93,0,0,1-4.7,2.93c-1.34.18-2.72.17-4.08.24C495.14,176.51,494.65,176.49,494.05,176.49Zm.07-9.09v5.84c1.58-.09,3.09-.08,4.58-.29a2.33,2.33,0,0,0,2-2.54c0-1.47-.55-2.47-1.93-2.69C497.28,167.48,495.71,167.5,494.12,167.4Z" transform="translate(0 0.74)"/>
  <path class="cls-2" d="M537,163.9c1.2,0,2.37,0,3.53,0a.9.9,0,0,1,.67.45c.94,2.4,1.86,4.8,2.73,7.22,1.35,3.77,2.67,7.55,4,11.32,0,.11.06.21.13.46-1.39,0-2.72,0-4,0-.16,0-.39-.31-.46-.52-.38-1-.73-2.08-1.06-3.13-.13-.43-.3-.67-.83-.66-1.83,0-3.67,0-5.5,0a.76.76,0,0,0-.86.64c-.33,1-.68,2.1-1.08,3.12a.93.93,0,0,1-.63.55c-1.18.05-2.37,0-3.7,0C532.27,176.83,534.62,170.4,537,163.9Zm1.88,5.47c-.79,2.29-1.52,4.38-2.26,6.53h4.46C540.35,173.75,539.65,171.68,538.87,169.37Z" transform="translate(0 0.74)"/>
  <path class="cls-2" d="M355.39,183.38c-1.48,0-2.79,0-4.1,0-.21,0-.51-.33-.6-.57-.39-1-.68-2.11-1.09-3.13a1.07,1.07,0,0,0-.76-.57c-1.87-.05-3.73-.05-5.6,0a1,1,0,0,0-.71.53c-.41,1-.77,2.07-1.09,3.12a.82.82,0,0,1-.95.66c-1,0-2.07,0-3.27,0,.63-1.8,1.21-3.45,1.8-5.11,1.47-4.19,2.94-8.39,4.43-12.57a10,10,0,0,1,.74-1.55.68.68,0,0,1,.49-.24c1.07,0,2.16,0,3.23,0,.25,0,.59.39.69.66,1.43,4,2.8,7.95,4.23,11.91.69,1.93,1.46,3.83,2.19,5.75C355.14,182.57,355.23,182.89,355.39,183.38Zm-7-7.47c-.73-2.14-1.43-4.2-2.12-6.27l-.2,0c-.71,2.07-1.43,4.13-2.15,6.24Z" transform="translate(0 0.74)"/>
  <path class="cls-2" d="M269.3,183.37c-1.58,0-2.92,0-4.25,0-.2,0-.48-.36-.58-.61-.38-1-.68-2.1-1.08-3.13a1,1,0,0,0-.71-.53c-1.86-.05-3.72-.05-5.59,0a1.09,1.09,0,0,0-.76.58c-.41,1-.74,2-1.06,3a.81.81,0,0,1-.93.69c-1,0-2.08,0-3.24,0,.09-.35.14-.59.22-.82q3.15-9,6.3-17.92c.19-.53.41-.8,1-.76a20.27,20.27,0,0,0,2.7,0,1,1,0,0,1,1.12.77q2.76,7.93,5.58,15.85C268.39,181.42,268.83,182.29,269.3,183.37Zm-9.27-14c-.9,2.32-1.69,4.38-2.5,6.51h4.69Z" transform="translate(0 0.74)"/>
  <path class="cls-1" d="M173.37,10.78v4.66l.15.18a12.3,12.3,0,0,1,11.22-5.38c-.09,1.34-.18,2.65-.26,3.89-1.33.12-2.58.16-3.8.37a9,9,0,0,0-5.08,2.86A12.15,12.15,0,0,0,174,19.28a3.86,3.86,0,0,0-.6,1.85c0,5.09,0,10.18,0,15.27v1.12h-4.31V10.78Z" transform="translate(0 0.74)"/>
  <path class="cls-1" d="M6.84,2a6.73,6.73,0,0,1,6.72,6.65,6.76,6.76,0,0,1-6.73,6.73A6.69,6.69,0,1,1,6.84,2Z" transform="translate(0 0.74)"/>
  <path class="cls-1" d="M122.87,179.67a6.75,6.75,0,1,1,6.86,6.72A6.66,6.66,0,0,1,122.87,179.67Z" transform="translate(0 0.74)"/>
  <path class="cls-2" d="M521,167.53h-5.72V164H531.2v3.5h-5.67V183.3H521Z" transform="translate(0 0.74)"/>
  <path class="cls-2" d="M359.82,167.55h-5.7V164H355c4.72,0,9.44,0,14.15,0,.8,0,1,.25,1,1s0,1.67,0,2.6h-5.84v15.78h-4.42Z" transform="translate(0 0.74)"/>
  <path class="cls-2" d="M338.62,167.54h-6v15.78h-4.25V167.58h-5.92V164c.29,0,.57,0,.85,0,4.8,0,9.61,0,14.41,0,.65,0,1,.13.91.86S338.62,166.55,338.62,167.54Z" transform="translate(0 0.74)"/>
  <path class="cls-1" d="M218.19,10.78V37.53h-4.27V10.78Z" transform="translate(0 0.74)"/>
  <path class="cls-2" d="M554.94,179.86h8.66v3.45h-13V164h4.38Z" transform="translate(0 0.74)"/>
  <path class="cls-2" d="M303.78,179.86h8.65v3.45c-.24,0-.47.07-.69.07-3.82,0-7.63,0-11.45,0-.63,0-.86-.14-.86-.82,0-5.94,0-11.87,0-17.81,0-.59.15-.83.78-.81,1.15,0,2.31,0,3.56,0Z" transform="translate(0 0.74)"/>
  <path class="cls-2" d="M310.33,212.51c-1.29.41-2-.11-2.68-1.14-2.75-4.13-5.58-8.2-8.39-12.3-.09-.13-.2-.25-.46-.59v14.09h-2.15V195a18.46,18.46,0,0,1,2.1,0c.24,0,.49.35.66.6,2.09,3.11,4.14,6.25,6.25,9.35.83,1.23,1.76,2.4,2.75,3.74V195.07h1.92Z" transform="translate(0 0.74)"/>
  <path class="cls-2" d="M370.8,204.82l4.5,7.79c-.83,0-1.48,0-2.13,0-.19,0-.42-.27-.54-.47-1.23-2.1-2.48-4.19-3.66-6.31a1.24,1.24,0,0,0-1.36-.78,13.38,13.38,0,0,1-2.1,0c-.71-.06-.95.17-.94.91.05,2.18,0,4.37,0,6.61h-2.23V195c.59,0,1.19,0,1.79,0,2.15.05,4.31,0,6.45.2s3.69,1.14,4.22,3.33-.1,5.28-3.33,6C371.27,204.63,371.06,204.73,370.8,204.82Zm-6.21-7.75c0,1.87,0,3.76,0,5.64a.66.66,0,0,0,.47.43,48.86,48.86,0,0,0,5.14-.18,2.58,2.58,0,0,0,2.54-2c.36-2.23-.14-3.42-2.63-3.82A36.35,36.35,0,0,0,364.59,197.07Z" transform="translate(0 0.74)"/>
  <path class="cls-2" d="M551.45,202.31h9.2v-7.24h2.07v17.47h-2v-8.12h-9.19v8.14h-2.29v-17.5h2.23Z" transform="translate(0 0.74)"/>
  <path class="cls-2" d="M465.72,203.82a10.81,10.81,0,0,1-2,6.41,7.35,7.35,0,0,1-12.57-1.87,11.59,11.59,0,0,1-.08-8.94,7.19,7.19,0,0,1,7.63-4.75,7.34,7.34,0,0,1,6.52,5.8C465.46,201.56,465.55,202.7,465.72,203.82Zm-13.31,0-.26.07a30.24,30.24,0,0,0,1.27,4.38,5.1,5.1,0,0,0,9,.13,9.76,9.76,0,0,0,0-9.21,4.67,4.67,0,0,0-4.43-2.6,4.92,4.92,0,0,0-4.56,2.69A9.15,9.15,0,0,0,452.41,203.82Z" transform="translate(0 0.74)"/>
  <path class="cls-2" d="M380,208.3l1.88-.76a2.68,2.68,0,0,1,.22.32,5.26,5.26,0,0,0,6.49,3,3.8,3.8,0,0,0,2.47-1.91c.46-.77,0-2.21-1.07-2.93a10.79,10.79,0,0,0-2.17-1.1c-1-.39-2.08-.59-3-1.06a18.87,18.87,0,0,1-3.4-2c-1.15-.91-.93-4,.09-5.09a7.26,7.26,0,0,1,9.61-.58,12,12,0,0,1,1.88,2.29c-.28.21-.41.33-.55.41-1.23.72-1.23.72-2.1-.44a5,5,0,0,0-6.05-1.37,2.38,2.38,0,0,0-.21,4.24,25,25,0,0,0,3.28,1.38c1.26.5,2.59.89,3.79,1.51a4,4,0,0,1,2.19,4,4.21,4.21,0,0,1-2.44,3.82,8.17,8.17,0,0,1-6.34.63A6.42,6.42,0,0,1,380,208.3Z" transform="translate(0 0.74)"/>
  <path class="cls-2" d="M319.57,183.37c-1.33,0-2.66,0-4,0-.14,0-.35-.27-.38-.44a7.09,7.09,0,0,1,0-1.13c0-5.64,0-11.29,0-16.93,0-.66.14-.94.87-.9,1.16.06,2.32,0,3.54,0Z" transform="translate(0 0.74)"/>
  <path class="cls-2" d="M290.08,195.05v3.52c0,2.68.05,5.36,0,8a9.18,9.18,0,0,1-.59,2.87c-.93,2.51-3.78,3.56-6.57,3.44a6.24,6.24,0,0,1-5.59-3.25,4.85,4.85,0,0,1-.59-2.16c-.06-4.13,0-8.26,0-12.45h2.23c0,.32,0,.63,0,.94,0,3.46,0,6.93,0,10.39,0,4.39,3.53,5.18,6.21,4.32a4.39,4.39,0,0,0,2.84-4.52c0-3.38,0-6.76,0-10.13v-1Z" transform="translate(0 0.74)"/>
  <path class="cls-2" d="M345.36,212.55V195h10.9v1.85h-8.79v5.51H354v1.89h-6.54v6.38h9.27v1.88Z" transform="translate(0 0.74)"/>
  <path class="cls-2" d="M543.88,212.56c-2.3.2-2.3.2-3-1.89-.3-.86-.63-1.7-.88-2.56a.69.69,0,0,0-.81-.57c-1.89,0-3.79,0-5.68,0a.78.78,0,0,0-.87.62c-.54,1.48-1.16,2.94-1.76,4.43h-2c.75-2.12,1.46-4.2,2.21-6.27,1.31-3.59,2.65-7.16,3.95-10.76.17-.45.38-.67.88-.61a2.55,2.55,0,0,0,.78,0c.62-.09.9.17,1.11.77,1.06,3.1,2.16,6.2,3.27,9.28.81,2.23,1.67,4.44,2.51,6.65C543.68,212,543.77,212.25,543.88,212.56Zm-4.79-6.95-2.76-8.11c-1,2.87-1.89,5.46-2.8,8.11Z" transform="translate(0 0.74)"/>
  <path class="cls-2" d="M508.11,183.38V164c1.29,0,2.53,0,3.78,0,.16,0,.43.47.44.72,0,2.53,0,5.06,0,7.59,0,3.37,0,6.75,0,10.12,0,.79-.23,1-1,1C510.31,183.33,509.24,183.38,508.11,183.38Z" transform="translate(0 0.74)"/>
  <path class="cls-2" d="M373,164h4.2V183.3H373Z" transform="translate(0 0.74)"/>
  <path class="cls-2" d="M295.08,183.32h-4.19V164h4.19Z" transform="translate(0 0.74)"/>
  <path class="cls-2" d="M495.13,195h2.07c0,.31,0,.61,0,.92,0,3.41,0,6.81,0,10.22a7.86,7.86,0,0,0,.21,1.81c.63,2.42,3,3.59,5.7,2.86,2.11-.57,3.1-2,3.12-4.54,0-3.4,0-6.81,0-10.22v-1h2.09v11.18c0,4.2-2.26,6.55-6.47,6.7s-6.77-2.28-6.77-6.5V195Z" transform="translate(0 0.74)"/>
  <path class="cls-2" d="M332.63,209.55c.42-1.22.83-2.45,1.26-3.67,1.21-3.41,2.44-6.8,3.64-10.21.18-.53.44-.75,1-.68.37,0,.75,0,1.26,0-.1.35-.16.65-.26.93q-2.4,6.85-4.82,13.71c-.31.89-.7,1.76-1.09,2.63s-1,.25-1.54.37-.69-.24-.84-.65c-1-3-2.1-6-3.15-9l-2.47-7.06c-.09-.27-.16-.55-.25-.87h2.14l4.92,14.5Z" transform="translate(0 0.74)"/>
  <path class="cls-2" d="M473.77,204.52v8h-2.1V195h10.67v1.86h-8.5v5.67h4.33a7.21,7.21,0,0,0,1,0c.86-.13,1,.28,1,1s-.18,1-.93.94C477.49,204.48,475.69,204.52,473.77,204.52Z" transform="translate(0 0.74)"/>
  <path class="cls-2" d="M407.29,196.94v-1.89h13.58v1.88c-1.59,0-3.15,0-4.71,0-.84,0-1,.27-1,1,0,4.51,0,9,0,13.53v1.08H413V196.94Z" transform="translate(0 0.74)"/>
  <path class="cls-2" d="M431.81,203c1.4-2.38,2.78-4.67,4.08-7a1.59,1.59,0,0,1,1.84-1,10,10,0,0,0,1.26,0c-.53.73-1,1.3-1.38,1.92q-2.26,3.72-4.49,7.48a2.39,2.39,0,0,0-.28,1.15c0,2,0,4,0,6v1h-2.17v-2.7a14,14,0,0,1,0-1.83c.4-2.66-.78-4.69-2.29-6.75s-2.51-4.09-3.83-6.29a15.32,15.32,0,0,1,1.94,0,1.21,1.21,0,0,1,.67.54C428.71,198,430.23,200.47,431.81,203Z" transform="translate(0 0.74)"/>
  <path class="cls-2" d="M521.38,212.59h-2.1V197h-5.55v-1.91h13.34v1.86h-5.69Z" transform="translate(0 0.74)"/>
  <path class="cls-2" d="M399.57,195h2.14v17.55h-2.14Z" transform="translate(0 0.74)"/>
  <path class="cls-2" d="M317.6,195h2v17.54h-2Z" transform="translate(0 0.74)"/>
  <path class="cls-1" d="M302.05,37.53h-5.42c0-1.62,0-3.18,0-4.74a.77.77,0,0,1,.54-.48c1.45,0,2.91,0,4.37,0a.73.73,0,0,1,.47.52C302.07,34.37,302.05,35.91,302.05,37.53Z" transform="translate(0 0.74)"/>
  <path class="cls-1" d="M213.79,5V.81h4.44V5Z" transform="translate(0 0.74)"/>
</svg>